<svg xmlns="http://www.w3.org/2000/svg" viewBox="0 0 1002.87 608.49">
    <defs>
        <style>
            .cls-1 {
                fill: #f1f5f9;
            }
        </style>
    </defs>
    <g id="Layer_2" data-name="Layer 2">
        <g id="Layer_1-2" data-name="Layer 1">
            <path class="cls-1"
                d="M498.49,137.46a2.35,2.35,0,0,0,3.62,2.89c12.19-10.72,28.59-32.62,9.55-63.36-18.31-29.57-23.87-53.74-22.17-74.44a2.35,2.35,0,0,0-4.61-.84c-9,31.27-1.66,57.43,9.6,82C506.41,109.75,506.77,122.43,498.49,137.46Z" />
            <path class="cls-1"
                d="M453.13,147.88a2.35,2.35,0,0,0,3.76,2.71c9.5-9.21,20.16-26.2,5.76-49.45C449.09,79.23,444.17,61,444.49,45.21a2.35,2.35,0,0,0-4.63-.62c-5.43,23.39.31,43.26,8.89,62C457.82,126.37,458.63,136.63,453.13,147.88Z" />
            <path class="cls-1"
                d="M548.57,105.94c-.27,7.49-.28,8.73.36,9,1.37.5,4.83-4.09,6.54-9,1.78-5.07,1.34-9.58.89-13.88a51.15,51.15,0,0,0-2.91-12.5c-3.49-9.1-7-9.48-11.55-19.77-2.71-6.09-3.43-10.07-4.6-9.94-1.37.15-2.44,5.77-1.94,10.9a20,20,0,0,0,1.26,5.54c3,7.7,5.77,9.1,9,16.51a34.31,34.31,0,0,1,3.14,11C549,95.9,548.89,97.06,548.57,105.94Z" />
            <path class="cls-1"
                d="M580,165c-6.06,8.5-13.81,19.27-22.82,31.62C496.11,280.33,452.83,339.65,397.47,398c-57.32,60.37-93.44,96-154.7,124.86-45.24,21.28-92.1,33.29-142.47,20.15-54.56-14.23-93.18-58.76-99-114.78-7.15-68.5,16.11-131.85,58.94-177.32a221.68,221.68,0,0,1,77.09-53,79,79,0,0,1,63.62,1.82l7.3,3.44c-5.06.83-9.84,1.7-14.28,2.6-21.27,4.32-46.95,10.59-73.25,23.86a209,209,0,0,0-47.31,32.64C21.93,309.37,10.1,379.08,43.16,435.83,73.82,488.47,135.5,508,203.1,486.12c59.37-19.24,106.82-57.21,151.47-98.87,59.65-55.64,114-116.38,168-177.41,15.71-17.75,30.8-36.45,54.43-48.36A2.36,2.36,0,0,1,580,165Z" />
            <path class="cls-1"
                d="M996,267.81c-23.65,83.93-62.24,158.51-131.86,214.48-46.22,37.18-102.25,36.65-156.44,43.15-14.71,1.76-29.73,1.18-45,0a2.36,2.36,0,0,1-.25-4.67c59.13-11.44,114.72-31.33,162.18-70.35a1.09,1.09,0,0,1,.17-.13c64.61-42.73,110.8-101.51,146.48-169.15,5-9.4,6.94-18.7,6-27.66-1.49-13.6-9.55-23.12-12.81-26.89-3.86-4.46-10.73-12.4-22-15.59-5.39-1.53-14.8-.57-33.62,1.35-9.1.92-12.5,1.54-14.17,1.86a124.64,124.64,0,0,0-22.5,6.73C858.77,226.1,844.7,231.61,831,244c-6.9,6.25-11.54,10.58-13.24,17.73-2.52,10.68,3.14,20.44,5.93,25,6.44,10.65,32.34,53.46,35.1,92.41,1.3,18.34-2.25,28.7-7.39,35.78a40.3,40.3,0,0,1-9.84,9.53,2.35,2.35,0,0,1-3.68-2.2c3.45-30.48-14.26-49.86-30.21-69.35-23.94-29.08-28.37-57.57-15.25-94.92,13.74-39.17,40.91-60.21,73.1-79.38a1.93,1.93,0,0,1,.38-.19c21.86-8.19,43.37-17.55,65.7-24.27,40-12.06,67.32,7.39,70.69,49.29A181.86,181.86,0,0,1,996,267.81Z" />
            <path class="cls-1"
                d="M895.43,82.44a450.7,450.7,0,0,1-45.18,34.74,450.56,450.56,0,0,1-51.64,30,2.35,2.35,0,0,1-3.28-2.82,65,65,0,0,0,1.41-35.73c-4.78-18.92-18.46-35.36-35-42.28-44.56-18.68-97.13,37.18-103.43,43.48-12.5,12.5-22.63,28.77-30,50.42-14.23,42-7.61,55.31,45.15,64,14.9,2.51,30.52.87,51.5.53a2.36,2.36,0,0,1,1.52,4.19A602.59,602.59,0,0,0,665,286.05s-21.8,23.32-61.08,47.51c-5,3.05-16,9.62-25.16,5.69-5.08-2.19-7.63-5.35-11.53-13.54-14.76-31-44.21-31.63-65.46-4.84-13.69,17.24-21.42,37.31-27.15,58.2-6.37,23,4.31,34.24,26.68,34.12,12.76-.12,25.52-3,38.29-4.89a2.34,2.34,0,0,1,2.46,1.34c.88,1.89,1.77,3.77,2.65,5.62a2.33,2.33,0,0,1-.21,2.35c-79.35,113.5-184.06,178.13-333.66,162.24a2.35,2.35,0,0,0-1.89,4c2.58,2.54,3.89,3.91,5.45,4.38C340.38,626,438.66,618,515.68,503.43c7.68-11.39,15.23-22.9,22.2-34.76,11.89-20.26,43.22-58.45,95.91-103.11,3.07-2.6,3.3-2.76,6.5-5.44,29.19-24.5,67.42-60.38,112-112.91a2.35,2.35,0,0,1,4.13,1.26q.84,7.31,1.53,14.86,1.15,12.71,1.74,24.88a2.35,2.35,0,0,0,4.68.19l.05-.38q2.37-18.39,5.25-35.6a77.66,77.66,0,0,1,8.5-24.54c6.48-12.25,14.73-19.55,22.09-25.93,50-43.42,57.61-50,67.09-62.59a267.34,267.34,0,0,0,16.34-24.9,327.18,327.18,0,0,0,15.4-29.26A2.35,2.35,0,0,0,895.43,82.44ZM770,150.12c.09,4-.88,6.79-2.53,8.65v0c-3.35,5.26-10.65,7.57-27.76,7.81a201.25,201.25,0,0,1-20.62-.76,183.34,183.34,0,0,1-23.74-3.52,236.5,236.5,0,0,1-29.94-8.67,2.36,2.36,0,0,1-.74-4,131.24,131.24,0,0,1,21.49-15.13l.06,0c13.24-7.43,31.42-17.65,52.71-13.81,3.51.64,18.89,3.41,26.6,15,.06.09.13.19.19.3a1,1,0,0,1,.09.13,19.78,19.78,0,0,1,1.32,2.16c.05.1.1.2.16.3A21.45,21.45,0,0,1,770,150.12Z" />
            <path class="cls-1"
                d="M320.12,290.63,298.77,312a13.05,13.05,0,0,1-18.48,0L264.4,296.1a7.36,7.36,0,0,0-10.42,0L238.09,312a13.07,13.07,0,0,1-18.49,0l-21.36-21.35a13.07,13.07,0,0,1,0-18.48l21.36-21.36a13.09,13.09,0,0,1,18.49,0L254,266.68a7.36,7.36,0,0,0,10.42,0l15.89-15.89a13.07,13.07,0,0,1,18.48,0l21.35,21.36A13,13,0,0,1,320.12,290.63Z" />
        </g>
    </g>
</svg>